<svg width="24" height="20" viewBox="0 0 24 20" fill="none" xmlns="http://www.w3.org/2000/svg">
<path d="M6.49003 14.1821L14.268 6.40411C15.244 5.42811 16.65 5.25111 17.627 6.22711C18.603 7.20311 18.427 8.61011 17.45 9.58611L9.31803 17.7181C7.90403 19.1321 5.07503 19.1321 3.30803 17.3641C1.54003 15.5961 1.54003 12.7681 2.95403 11.3541L11.086 3.22211C12.3088 2.02163 13.9561 1.35255 15.6697 1.36042C17.3832 1.36829 19.0243 2.05249 20.236 3.26416C21.4477 4.47583 22.1319 6.11694 22.1397 7.83048C22.1476 9.54403 21.4785 11.1914 20.278 12.4141L15.682 17.0101" stroke="#F37021" stroke-width="2" stroke-linecap="round" stroke-linejoin="round"/>
</svg>
